<?xml version="1.0" encoding="utf-8"?>
<!-- Generator: Adobe Illustrator 22.1.0, SVG Export Plug-In . SVG Version: 6.00 Build 0)  -->
<svg version="1.1" id="Layer_1" xmlns="http://www.w3.org/2000/svg" xmlns:xlink="http://www.w3.org/1999/xlink" x="0px" y="0px"
	 viewBox="0 0 105 603" style="enable-background:new 0 0 105 603;" xml:space="preserve">
<style type="text/css">
	.st0{fill:#FFFFFF;}
</style>
<title>hokusai-sig</title>
<path class="st0" d="M46,161.5c0,4.7,0,9.4,0,14.2c-0.1,0.6-0.2,1.1-0.4,1.6c-4.6,1.1-6.3-2.2-5.5-6.2c0.9-4.4,1.7-8.9,0.1-13.4
	h-4.8c-0.5,2.7,1.9,6.9,4.9,7.7l-3.6,7.2l-3-1c-1,2.3-1.9,4.6-3,6.8c-0.6,1.2-1.1,2.5-3,1.7c-2.8-1.2-3.6-2.4-3-4.6
	c1.3-5,2.8-9.9,3.7-15c1-6.1,1.4-12.4,2.1-19c-6.4,2.8-11.9,1.7-17.9-2c10.7-2.7,20.6-5.6,27.4-14.4c-1.5-0.9-3-1.9-4.3-3
	c-1.2-1.1-3.6-1.5-3-4.3c-6.7,2.7-9.6-2.7-14-6.6c1.4-0.1,2.1-0.2,2.8-0.2c2,0.1,4.1,0.1,6.1-0.2c3.7-0.8,7.4-1.8,11.1-2.9
	c3-0.8,3.3-1.7,1.3-4.2c-1.2-1.6-2.5-3.1-3.8-4.7c-0.3-0.5-0.6-0.9-0.8-1.4c0.2-0.2,0.4-0.5,0.4-0.4c3.6,1.4,7.3,2.7,10.9,4.2
	c0.7,0.4,1.3,1,1.8,1.7c0.9,1,1.7,2.9,2.7,3c3,0.1,5.9-0.1,8.9-0.5c1.5-0.1,3.2-1.2,4.4-0.7c2.8,1.2,5.5,2.7,7.9,4.5
	c0.7,0.5,0.5,2.3,0.7,3.5c-1.6,0.2-3.4,1.1-4.7,0.6c-4.9-2.1-10.3-2.8-15.7-2.3c-4.9,0.6-9.6,2.4-14.3,3.8c-1.4,0.6-2.8,1.3-4.2,2.1
	c3,1.2,6,2.4,9,3.5c0.5,0.2,1.1,0.1,1.5-0.3c1.4-1.9,2.7-3.9,3.9-6c0.8-1.7,2.5-2.3,4-1.2c2.6,2,2.8,3.5,0.9,6.2
	c-1.1,1.6-2.3,3-3.7,4.9c7,3.9,13.3,8.7,21,10.8c3.8,1.1,7.5,2.6,11.1,4.2c0.9,0.4,2.1,1.9,1.9,2.6c-0.4,1.2-1.6,2.3-2.6,3.3
	c-0.3,0.3-0.9,0.3-1.4,0.3c-3.1,0.3-6.1,0.5-9.2,0.4c-2-0.2-4-1.3-5.9-2.1c-0.9-0.5-1.7-1.2-2.5-1.9c-0.2,8.9-0.5,17.1-0.6,25.2
	c0,5.2,0.2,10.3,0.3,15.5c0,2-0.8,3.6-2.6,4.3c-1.5,0.5-4-1.8-4.1-3.8c-0.2-3.6,0-7.3,0-11.2c-3,0.6-4.5-1.1-5.6-3.2
	C48.5,166.3,47.3,163.9,46,161.5c1.8-1.2,3.2-0.3,4.5,0.7s2.6,2.2,4,3.5v-11l-12.7,1.5L46,161.5z M54.8,134.9
	c-2.7-1.8-5.3-3.6-8.1-5.3c-0.8-0.3-1.7-0.2-2.5,0.2c-3.4,3.1-6.6,6.3-9.8,9.4l1.8,4.9c2.7-0.8,5.5-1.5,8.1-2.6s5.2-1.1,7.5,0.8
	c1.6,1.3,1.5,2.6-0.5,3.3c-1.6,0.6-3.2,0.9-4.8,1.4c-4,1.4-7.7,1.6-10.7-3.1l-0.4,8.5c2.6-0.7,4.9-1.3,7.3-1.8c4-0.9,8-2.6,12.1,1
	L54.8,134.9z"/>
<path class="st0" d="M41.2,567c-2.9,1.1-5.2,1.9-7.5,2.9c-4.8,2-10-0.4-11-4.7c3.2-0.8,6.3-1.5,9.5-2.4c3.1-0.8,6.1-1.8,9-3.2
	c-3.7,0.4-7-0.2-9.8-2.7c-0.5-0.6-0.9-1.3-1.2-2.1c10.3-2.2,10.3-2.2,10.8-4.3c-3.8,0.3-7.4,0.2-10.2-3.4c3.1-1,5.8-1.8,8.5-2.7
	c1.7-0.6,1.7-0.6,1.7-3c-3,0.8-5.9,1.6-8.8,2.3c-4.8,1.2-9.5,2.7-14.3,3.5c-2.2,0.4-4.7-0.4-6.9-1c-0.9-0.2-1.5-1.7-2.3-2.7
	l32.7-9.1c-0.1-2-0.2-4-0.3-6.2c-4.1,0.7-7.8,0.8-10.5-3.5c2.4-0.5,4.5-1,6.7-1.5c3.9-0.8,4.4-1.8,3.1-5.6c-0.3-0.9-0.7-1.8-1.1-2.8
	c4.6-0.7,9.4,2,10.8,6.3c0.9-0.2,1.8-0.3,2.8-0.5c3.7-1,9.1,0.9,11.1,4.1c0.6,1,0.4,2.5,0.9,3.6c0.3,0.7,1.2,1.6,1.8,1.6
	c2.1,0.1,4.2,0,6.2-0.4c3.6-0.8,6.5,0.5,9.3,2.4c1.5,0.9,2,2.8,1.2,4.4c0,0,0,0,0,0c-0.9,1.6-2.2,2.8-4.3,2
	c-5-1.9-10.1-1.7-15.3-0.8c-2.8,0.5-4.7,3.3-4.1,6.1c0,0.2,0.1,0.4,0.1,0.6c0.5,1.6,0.2,2.9-1.4,3.4c-1.5,0.4-3,0.7-4.6,0.8
	l-3.2,0.6l0.1,0.8c2,0.2,4,0.3,6,0.7c2.3,0.5,4,2.5,3.6,4s-2.7,2.8-4.9,2.5c-1-0.3-2-0.3-3-0.3c-0.9,0.2-1.6,1-2.8,1.8
	c4,0,7.2-0.2,10.4,0.1c2.7,0.3,5.4,0.9,8,1.6c0.6,0.1,1.1,0.5,1.4,1c0.7,1.2,1.7,2.6,1.7,3.9c0,0.6-1.9,1.6-3.1,1.8
	s-2.7-0.3-4.1-0.5c-3.8-0.4-7.5-0.9-11.3-1.1c-1.8-0.1-2.7,1.2-2.8,2.9c-0.4,4.4-0.5,8.8-1,13.2c-0.5,3.2-1.2,6.3-2.1,9.4
	c-0.2,0.8-1.3,1.3-2,1.9c-0.6-0.9-1.7-1.8-1.7-2.7c-0.6-6.3-1-12.7-1.4-19.1C41.1,569.6,41.2,568.6,41.2,567z M49.5,532.5
	c1.1-0.2,2.5-0.1,3-0.6c0.8-1.1,1.5-2.4,1.9-3.7c-0.8-0.5-1.7-0.8-2.7-0.9C49.2,527.3,48.5,528.8,49.5,532.5z"/>
<path class="st0" d="M60.3,375.8c6.9,0,9.8-4.3,11.3-10.1c1.1-4.3,2.1-8.5,3.1-12.8c0.5-2.1-0.4-3.5-2.4-4.3
	c-3.6-1.3-7.6-1.4-11.3-0.5c-8.3,1.9-16.5,4.1-24.7,6c-1.9,0.3-3.9,0.5-5.9,0.6c-5.5,6.1-11,13.4-21.8,13.3
	C20.8,355,32,341.5,41.6,326.5c-1.1,0.5-2.1,0.9-3.2,1.3c-2,0.7-4,1.5-6.1,2.1c-4,1.1-7.2-0.5-9-4.2c7-2,14-3.9,21-5.9
	c0.8-0.2,1.4-0.8,1.8-1.5c2.1-4.8,3.9-9.7,6-14.5c1-2.3-1.6-2.3-2.1-3.6c2.1-1.7,5.1-1.6,7.1,0.2c2,1.4,2.8,4.1,1.9,6.4
	c-1.5,3.6-3,7.2-4.5,11c1.6,0.1,3.2,0.1,4.8,0c3.6-0.5,8.3,1.3,10.1,4.4c0.4,0.9,0.4,2,0,2.9c-1.2,1.7-2.5,3.4-3.9,5
	c2,1.6,4.8,2.8,5.7,4.9s-0.5,4.8-0.8,7.2c2,1,4.8,1.8,7.1,3.4c3.6,2.5,5.6,5.8,4.8,10.6c-1.5,8.9-4.4,17.5-8.6,25.4
	c-1.4,2.5-5.6,2.8-7,0.5C64.1,378.2,64.1,378.2,60.3,375.8z M64.4,335.2c-1.5-0.1-3-0.1-4.5,0c-5.5,0.8-11.1,1.7-16.6,2.6
	c-0.3,0-0.6,0.2-0.8,0.4c-2.2,3.3-4.5,6.5-6.9,10.2c0.9-0.1,1.4-0.2,1.8-0.3c6.4-1.5,12.7-3.5,19.1-4.5c4.6-0.7,6.7-2.8,7.5-7.1
	C64.1,336.3,64.2,336,64.4,335.2z M59.9,322.6c-8-1.6-10.3,2.6-14,10.9C53.2,333.7,58.5,330.7,59.9,322.6z"/>
<path class="st0" d="M46.1,12.1c8.6,2.4,13.5,7.2,13.1,16.8c2.2-2.6,4-4.6,5.5-6.7c0.4-0.6,0.2-1.8,0.1-2.6c-0.3-1.6,0.4-2,1.8-1.7
	c3.7,0.6,8.1,5.7,8.3,9.4c0.2,2.9-1.5,4.7-3.8,5.9c-3.7,2-7.4,3.8-11,5.8c-0.9,0.5-2,1.3-2.2,2.1c-1,3.8-1.9,7.7-2.6,11.6
	c-0.1,0.5,0.8,1.7,1.5,1.9c6.8,2.2,13.9,2.7,20.9,1.4c0.7-0.1,1.7-1.4,1.8-2.3c0.5-2.8,0.6-5.6,0.8-8.1c0.5,1.5,0.8,3.7,1.9,5.2
	c1.2,1.7,3.3,2.9,4.8,4.4s3.4,3.2,4.4,5.2c1.2,2.5,0.1,4.8-2.7,5.3c-3.1,0.6-6.2,0.9-9.4,0.8C72.2,66,65.1,65.7,58,64.9
	C52.5,64.3,47.7,58.5,48,53c0.4-7,1.4-13.9,2.1-20.8c0.6-5.4,0.1-10.6-2.5-15.5C47,15.1,46.5,13.6,46.1,12.1z"/>
<path class="st0" d="M37,53.3l3-0.3c-0.1,2.1-0.4,4.2-0.8,6.2c-0.4,1.1-1.1,2-2.1,2.7c-5.2,3.9-10.4,7.9-15.9,11.5
	c-2,1.3-4.4,2-6.8,2.1c-4.3,0.3-7.6-5.1-6.1-8.3c2.5-0.7,4.5-1.1,6.3-1.9c5-2.5,9.9-5.1,14.8-7.8c0.5-0.3,1.2-0.9,1.2-1.4
	c-0.2-4.9-0.5-9.7-0.8-14.8c-3.3,1.4-6.3,2.6-9.2,4c-2.8,1.3-6.1,0.9-8.5-1c-2.4-1.9-1.8-5.2-1.5-8c0-0.5,1.4-1.1,2.2-1.3
	c4.7-0.8,9.3-1.5,14-2.3c2-0.3,2.9-1.4,2.9-3.6c0.1-3.7,0-7.1-2.6-10.3c-1.4-1.7-1.8-4.3-2.8-7c5.8,1.7,10.4,3.7,14.2,7.2
	c2.1,1.9,2.8,4.8,1.9,7.4c-2.2,6.7-2.7,13.5-3,20.4C37.4,49,37.2,51.1,37,53.3z"/>
<path class="st0" d="M53.5,263c-4.3,5-8.4,10.7-15.7,11.6l-0.6-0.6c0.4-0.6,0.8-1.3,1.2-1.9l9-12.8c1-1.4,1-2.6-0.4-3.9
	c-3.2-2.9-6.2-5.9-9.3-9c-0.7-0.8-1.3-1.7-1.9-2.6c7.4-2.4,11.1,3.3,15.6,6.8c2.7-4.7,4.8-9.2,1.7-11.8c2.2-3,4.3-0.7,6.3,0.2
	c2.1,0.9,2.5,3.1,2,5.1c-0.8,3.1-1.8,6.2-2.9,9.3c-0.8,2.1-1,3.5,1.2,5c4.7,3.3,8.8,7.4,13.6,10.6c2.8,1.9,6.3,2.8,9.7,3.8
	c4.7,1.5,9.8,2.1,13.9,5.3c0.8,0.6,1.9,1.7,1.8,2.1c-0.5,1.2-1.5,3.1-2.5,3.2c-4.1,0.5-8.2,0.7-12.3,0.7c-7,0.1-11.5-4.6-16.3-8.8
	S58.3,267.3,53.5,263z"/>
<path class="st0" d="M6.8,222.9l0.9,2.5c1.8-1,3.5-1.9,5.3-2.8c1.5-0.8,3-1.4,4.5-2.2c0.6-0.2,1.1-0.6,1.5-1.2
	c2.1-3.5,4.8-4.4,8.3-2.1c3.9,2.6,6,4.8,3.5,9.9c-1.6,3.3-3,6.8-4.4,10.2c-0.2,0.8,0,1.7,0.5,2.4c1.6,2.4,1.6,3.1-0.8,4.6
	c-1.9,1.1-3.8,2.1-5.7,3.1s-4,1.7-6.1,2.5l-1.9,20.8c1.4-0.8,2.9-1.5,4.4-2.2c1-0.4,2.2-0.5,3.3-0.2c2.6,0.9,5,2.4,6.1,5.1
	c0.2,0.5,0.2,1.4,0,1.5c-3.2,1.6-6.4,3.7-9.8,4.5c-6.1,1.4-9.9-1.8-9.7-8.2c0.2-6.6,1.1-13.1,1.5-19.6c0.2-2.2-0.1-4.4,0-6.6
	c0.1-1.2,0.4-2.5,0.7-3.6c-0.3-0.1,0-0.1,0.2,0.1c4.3,2.1,7.7,0.4,8.9-4.4c0.4-1.7,1.1-3.3,1.5-5s0.9-3.3,1.4-5.5
	c-2.2,1.3-3.8,2.4-5.5,3.2c-4.5,2.2-8.4,0.6-9.9-4.1c-0.2-0.8,0.4-1.8,0.6-2.7L6.8,222.9z"/>
<path class="st0" d="M10.1,447.3c0.7-0.2,1-0.3,1.2-0.4c3.9-0.9,8-1.5,11.8-2.9c9.8-3.4,20-5.6,30.3-6.5c2.7-0.2,5.3-0.3,8-0.5
	c1.1,0,2.1-0.3,3.1-0.8c2.6-2.4,5.5-1.7,8.2-0.6c3.5,1.4,7.1,2.6,9.8,5.7c1.5,1.8,1.5,3.5,0.4,4.8c-1.2,1-2.9,1.3-4.4,1
	c-6.1-1.7-12.4-2.5-18.7-2.4c-10.6,0.2-21,1.6-31,5.4c-3.4,1.2-7.3,1.3-11,1.5C14.7,451.5,12.4,449.7,10.1,447.3z"/>
<path class="st0" d="M59.4,507.7l-5.2-0.5c-1.3,3.8-5.1,3.9-8.8,5.5c0.7-3.6,1.4-6.5,1.9-9.5s1.8-5.9-0.8-8.5
	c4.2-2.3,9.9,1.6,10.7,7.2c3.5-0.9,7.1-1.7,10.5-2.9c2.1-0.6,4.3-0.4,6.3,0.5c1.7,0.7,3,2.3,2.2,3.9c-0.5,1.1-2.4,1.8-3.7,2.2
	c-2.5,0.5-4.9,0.8-7.4,1c2.5,3.8,2.4,3.8-0.2,7.5c-0.7,0.9-1.3,1.9-1.9,2.9c-0.8,1.8-2.9,2.5-4.7,1.7c-0.1,0-0.1-0.1-0.2-0.1
	c-2.1-0.9-1.9-2.8-1.5-4.3C57.5,512,58.4,509.8,59.4,507.7z"/>
<path class="st0" d="M29.6,506.6c1.6-0.5,3.1-1.2,4.6-1.9c2.7-1.5,5.2-0.7,7.5,0.8c1,0.6,2.2,2.5,1.9,3.1c-0.7,1.2-1.9,2.2-3.3,2.6
	c-2.8,0.8-5.6,1.2-9,1.9c3.4,2.2,4.8,4.7,3.2,8c-0.6,1.1-1.6,1.9-2.9,2.2c-1.3-0.2-2.4-0.9-3-2c-0.6-1.6-1-3.3-1.1-5
	c-0.4-3.1-2-3.7-4.7-2.5c-2.3,1.1-5.1,1.3-7.7,2l-0.5-0.8c0.8-1.8,1.7-3.5,2.5-5.3s1.6-3.5,2.5-5.2c1-2,1.6-4.1-0.9-5.7
	c4.3-1.5,9,0.9,10.4,5.2C29.5,504.9,29.6,505.7,29.6,506.6z"/>
<path class="st0" d="M46.1,205c3.2,0.9,6.2,2.6,8.5,5c0.3,0.6,0.5,1.2,0.3,1.9c0,1.1-0.2,2.1-0.7,3.1c-4,5.8-8.2,11.4-12.6,17.6
	c-1-3-1-6.2,0.1-9.2c1-3.2,2.4-6.4,3.7-9.5c1-2.5,2.1-4.9,0.5-7.5c-0.1-0.2-0.1-0.5-0.1-0.7C45.9,205.4,46,205.2,46.1,205z"/>
<path class="st0" d="M75.5,225.2c-5.4,1.9-10.6,3.9-15.9,5.6c-4.3,1.4-8.5,1.4-11.8-1.6c4.9-2.3,10-4.7,15-7.2
	c0.5-0.2,1-0.5,1.4-0.9c1.3-1.5,2.3-3.1,4.9-2.2C74.2,220.8,74.7,221.1,75.5,225.2z"/>
<path class="st0" d="M32.5,307.2c1.3,0.5,2.6,1.2,3.8,2c1.7,1.4,3.3,1.1,4.9,0l4.5-2.9c-0.4,1-0.7,1.5-0.9,2c-1,2.6-1.8,5.3-2.5,8
	c-0.5,2.5-1.8,3.6-4,2.3c-1.4-0.8-2.6-1.9-3.5-3.4c-1.2-2.4-2.3-4.8-3.3-7.3L32.5,307.2z"/>
<path class="st0" d="M56.7,355.4c3.8-1.4,5.8,0.8,7.7,2.4c1.5,1.3,2.4,3.3,3.4,5.1c0.6,1.1,0.9,2.6-0.5,3.2c-1.2,0.5-3,0.9-3.8,0.3
	c-1.6-1.4-3-3-4-4.9C58.4,359.4,57.5,357.4,56.7,355.4z"/>
<path class="st0" d="M32.2,368.9c-0.5,2.8-1.4,4.1-3.6,4.4c-1.9,0.2-3.3-1.1-3.4-3.7c-0.1-2.5,0-5.1,0.4-7.6c0.1-0.8,1-2,1.5-2
	c1,0.1,1.8,0.6,2.3,1.4C30.5,363.8,31.3,366.3,32.2,368.9z"/>
<path class="st0" d="M35.9,359.3c5.3-1.8,9,3.2,8.6,7c-0.1,0.8-1.2,2.1-1.7,2c-1.2-0.1-2.4-0.6-3.3-1.5c-1-1.3-1.8-2.8-2.4-4.3
	C36.6,361.5,36.3,360.4,35.9,359.3z"/>
<path class="st0" d="M47.5,357.4c2.8-0.1,6.2,3.6,5.6,5.6c-0.3,1-1.1,1.8-2,2.2c-0.9,0.2-1.9,0-2.6-0.7c-0.9-1.8-1.7-3.7-2.1-5.7
	C46.3,358.4,47.3,357.7,47.5,357.4z"/>
<path d="M54.8,134.9v16.8c-4.1-3.5-8.1-1.9-12.1-1c-2.3,0.5-4.7,1.2-7.3,1.8l0.5-8.5c3,4.7,6.7,4.6,10.7,3.1
	c1.6-0.6,3.2-0.9,4.8-1.4c1.9-0.7,2.1-2,0.5-3.3c-2.3-1.9-4.8-1.8-7.5-0.8s-5.4,1.7-8.1,2.6l-1.8-4.9c3.2-3.1,6.5-6.3,9.8-9.4
	c0.7-0.5,1.7-0.6,2.5-0.2C49.5,131.2,52.1,133.1,54.8,134.9z"/>
<path d="M46,161.5l-4.3-5.4l12.7-1.5v11c-1.4-1.2-2.6-2.5-4-3.5s-2.8-1.9-4.5-0.6L46,161.5z"/>
<path d="M49.5,532.5c-1-3.7-0.3-5.2,2.2-5.2c0.9,0.2,1.8,0.5,2.7,0.9c-0.5,1.3-1.1,2.5-1.9,3.7C52,532.4,50.7,532.3,49.5,532.5z"/>
<path d="M64.4,335.2c-0.2,0.8-0.3,1.1-0.3,1.4c-0.7,4.2-2.9,6.4-7.5,7.1c-6.5,0.9-12.8,2.9-19.1,4.5c-0.5,0.1-0.9,0.1-1.8,0.3
	c2.5-3.6,4.7-6.9,6.9-10.2c0.2-0.2,0.5-0.4,0.8-0.4c5.5-0.9,11-1.8,16.6-2.6C61.5,335.2,62.9,335.2,64.4,335.2z"/>
<path d="M59.9,322.6c-1.4,8-6.7,11-14,10.9C49.6,325.2,51.9,321.1,59.9,322.6z"/>
</svg>
